<svg width="370.995" height="28.2" viewBox="0 0 370.995 28.2" xmlns="http://www.w3.org/2000/svg"><g id="svgGroup" stroke-linecap="round" fill-rule="evenodd" font-size="9pt" stroke="#000" stroke-width="0.25mm" fill="black" style="stroke:#000;stroke-width:0.25mm;fill:black"><path d="M 11.64 21.33 L 9.93 20.28 L 16.35 1.77 L 18.72 1.77 L 11.64 21.33 L 10.65 19.5 L 10.05 19.5 L 9.66 15.96 L 4.83 1.77 L 1.8 1.77 L 8.61 21.57 Q 9.36 21.6 10.155 21.525 A 21.724 21.724 0 0 0 10.736 21.462 A 17.859 17.859 0 0 0 11.64 21.33 Z M 166.98 21.27 L 163.32 21.27 L 163.2 18.6 Q 164.25 18.96 165.18 19.125 A 10.78 10.78 0 0 0 166.362 19.271 A 9.05 9.05 0 0 0 166.95 19.29 A 8.005 8.005 0 0 0 168.459 19.154 A 5.924 5.924 0 0 0 170.025 18.63 Q 171.33 17.97 172.17 16.83 Q 173.01 15.69 173.43 14.28 Q 173.85 12.87 173.85 11.4 A 10.705 10.705 0 0 0 173.518 8.704 A 9.732 9.732 0 0 0 173.295 7.965 A 10.663 10.663 0 0 0 172.361 5.946 A 9.304 9.304 0 0 0 171.81 5.13 A 6.818 6.818 0 0 0 170.762 4.015 A 5.511 5.511 0 0 0 169.68 3.3 L 163.65 3.78 L 159.27 1.77 L 159.24 3.21 L 162.12 3.39 L 162.06 1.77 L 159.27 1.77 Q 161.49 1.65 163.725 1.59 Q 165.96 1.53 168.18 1.53 A 8.729 8.729 0 0 1 170.252 1.767 A 7.207 7.207 0 0 1 171.87 2.37 Q 173.49 3.21 174.63 4.62 Q 175.77 6.03 176.37 7.785 Q 176.97 9.54 176.97 11.4 Q 176.97 13.23 176.4 15 Q 175.83 16.77 174.615 18.18 A 8.358 8.358 0 0 1 172.308 20.033 A 10.146 10.146 0 0 1 171.51 20.43 Q 169.62 21.27 166.98 21.27 Z M 248.25 11.88 A 6.156 6.156 0 0 0 248.252 11.718 Q 248.252 11.555 248.243 11.395 A 4.993 4.993 0 0 0 247.89 9.78 Q 247.5 8.82 246.765 8.115 Q 246.03 7.41 245.04 7.02 A 5.388 5.388 0 0 0 244.338 6.798 A 6.149 6.149 0 0 0 242.88 6.63 A 6.986 6.986 0 0 0 242.69 6.633 A 5.965 5.965 0 0 0 240.075 7.29 Q 238.8 7.95 237.9 9.06 Q 237 10.17 236.505 11.58 Q 236.01 12.99 236.01 14.49 Q 236.01 15.9 236.46 17.19 Q 236.91 18.48 237.84 19.5 A 6.238 6.238 0 0 0 238.533 20.152 A 7.005 7.005 0 0 0 240.15 21.12 A 6.976 6.976 0 0 0 241.745 21.588 A 9.447 9.447 0 0 0 243.36 21.72 L 248.04 19.74 L 247.59 18.45 A 16.775 16.775 0 0 1 246.958 18.714 A 14.174 14.174 0 0 1 245.61 19.17 Q 244.65 19.44 243.75 19.44 Q 242.37 19.44 241.26 18.78 A 4.471 4.471 0 0 1 240.418 18.133 A 5.045 5.045 0 0 1 239.49 16.875 Q 238.83 15.63 238.83 13.86 A 8.184 8.184 0 0 1 238.831 13.732 A 8.794 8.794 0 0 1 239.085 11.79 Q 239.34 10.74 239.895 9.84 Q 240.45 8.94 241.38 8.46 Q 242.7 8.37 243.735 8.94 Q 244.77 9.51 245.31 10.56 Q 245.85 11.61 245.7 12.93 L 248.25 11.88 L 246.54 13.56 L 238.59 13.41 L 238.59 11.85 L 247.92 11.43 L 248.25 11.88 Z M 358.26 11.88 A 6.156 6.156 0 0 0 358.262 11.718 Q 358.262 11.555 358.253 11.395 A 4.993 4.993 0 0 0 357.9 9.78 Q 357.51 8.82 356.775 8.115 Q 356.04 7.41 355.05 7.02 A 5.388 5.388 0 0 0 354.348 6.798 A 6.149 6.149 0 0 0 352.89 6.63 A 6.986 6.986 0 0 0 352.7 6.633 A 5.965 5.965 0 0 0 350.085 7.29 Q 348.81 7.95 347.91 9.06 Q 347.01 10.17 346.515 11.58 Q 346.02 12.99 346.02 14.49 Q 346.02 15.9 346.47 17.19 Q 346.92 18.48 347.85 19.5 A 6.238 6.238 0 0 0 348.543 20.152 A 7.005 7.005 0 0 0 350.16 21.12 A 6.976 6.976 0 0 0 351.755 21.588 A 9.447 9.447 0 0 0 353.37 21.72 L 358.05 19.74 L 357.6 18.45 A 16.775 16.775 0 0 1 356.968 18.714 A 14.174 14.174 0 0 1 355.62 19.17 Q 354.66 19.44 353.76 19.44 Q 352.38 19.44 351.27 18.78 A 4.471 4.471 0 0 1 350.428 18.133 A 5.045 5.045 0 0 1 349.5 16.875 Q 348.84 15.63 348.84 13.86 A 8.184 8.184 0 0 1 348.841 13.732 A 8.794 8.794 0 0 1 349.095 11.79 Q 349.35 10.74 349.905 9.84 Q 350.46 8.94 351.39 8.46 Q 352.71 8.37 353.745 8.94 Q 354.78 9.51 355.32 10.56 Q 355.86 11.61 355.71 12.93 L 358.26 11.88 L 356.55 13.56 L 348.6 13.41 L 348.6 11.85 L 357.93 11.43 L 358.26 11.88 Z M 220.5 23.94 L 225.09 19.71 L 227.58 19.8 Q 226.47 20.4 225.405 21.15 A 12.529 12.529 0 0 0 224.458 21.884 Q 224.002 22.275 223.641 22.674 A 7.612 7.612 0 0 0 223.635 22.68 A 3.975 3.975 0 0 0 223.294 23.109 Q 223.135 23.344 223.045 23.566 A 1.479 1.479 0 0 0 222.93 24.12 A 1.098 1.098 0 0 0 223.295 24.936 Q 223.517 25.149 223.875 25.32 Q 224.82 25.77 226.26 25.77 A 9.502 9.502 0 0 0 228.298 25.542 A 10.888 10.888 0 0 0 228.78 25.425 Q 230.07 25.08 231.15 24.375 A 5.061 5.061 0 0 0 232.348 23.301 A 4.602 4.602 0 0 0 232.8 22.62 A 5.788 5.788 0 0 0 232.151 22.29 Q 231.342 21.935 230.115 21.615 A 29.661 29.661 0 0 0 228.225 21.191 A 39.308 39.308 0 0 0 226.125 20.85 Q 223.92 20.55 221.7 20.52 L 221.16 19.11 A 16.73 16.73 0 0 1 221.897 18.286 A 21.358 21.358 0 0 1 222.555 17.625 Q 223.35 16.86 224.19 16.23 A 11.718 11.718 0 0 1 224.792 15.806 Q 225.276 15.488 225.69 15.3 L 227.13 15.78 A 23.303 23.303 0 0 0 226.062 16.551 A 27.753 27.753 0 0 0 225.405 17.07 A 17.545 17.545 0 0 0 224.79 17.593 Q 224.317 18.015 223.98 18.39 A 22.317 22.317 0 0 1 224.985 18.442 Q 225.67 18.492 226.455 18.585 A 33.659 33.659 0 0 1 229.214 19.031 A 36.738 36.738 0 0 1 229.305 19.05 A 59.481 59.481 0 0 1 231.42 19.525 A 53.161 53.161 0 0 1 232.095 19.695 A 25.007 25.007 0 0 1 233.197 20.005 Q 233.863 20.211 234.42 20.43 A 6.8 6.8 0 0 1 234.547 21.327 Q 234.61 22.187 234.421 22.952 A 4.635 4.635 0 0 1 234.39 23.07 Q 234.06 24.27 233.235 25.23 Q 232.41 26.19 231.255 26.85 Q 230.1 27.51 228.765 27.855 Q 227.43 28.2 226.08 28.2 Q 224.91 28.2 223.86 27.93 A 6.425 6.425 0 0 1 222.641 27.487 A 5.496 5.496 0 0 1 222 27.12 A 3.725 3.725 0 0 1 221.163 26.367 A 3.309 3.309 0 0 1 220.785 25.785 A 2.883 2.883 0 0 1 220.488 24.734 Q 220.452 24.357 220.5 23.94 Z M 330.51 23.94 L 335.1 19.71 L 337.59 19.8 Q 336.48 20.4 335.415 21.15 A 12.529 12.529 0 0 0 334.468 21.884 Q 334.012 22.275 333.651 22.674 A 7.612 7.612 0 0 0 333.645 22.68 A 3.975 3.975 0 0 0 333.304 23.109 Q 333.145 23.344 333.055 23.566 A 1.479 1.479 0 0 0 332.94 24.12 A 1.098 1.098 0 0 0 333.305 24.936 Q 333.527 25.149 333.885 25.32 Q 334.83 25.77 336.27 25.77 A 9.502 9.502 0 0 0 338.308 25.542 A 10.888 10.888 0 0 0 338.79 25.425 Q 340.08 25.08 341.16 24.375 A 5.061 5.061 0 0 0 342.358 23.301 A 4.602 4.602 0 0 0 342.81 22.62 A 5.788 5.788 0 0 0 342.161 22.29 Q 341.352 21.935 340.125 21.615 A 29.661 29.661 0 0 0 338.235 21.191 A 39.308 39.308 0 0 0 336.135 20.85 Q 333.93 20.55 331.71 20.52 L 331.17 19.11 A 16.73 16.73 0 0 1 331.907 18.286 A 21.358 21.358 0 0 1 332.565 17.625 Q 333.36 16.86 334.2 16.23 A 11.718 11.718 0 0 1 334.802 15.806 Q 335.286 15.488 335.7 15.3 L 337.14 15.78 A 23.303 23.303 0 0 0 336.072 16.551 A 27.753 27.753 0 0 0 335.415 17.07 A 17.545 17.545 0 0 0 334.8 17.593 Q 334.327 18.015 333.99 18.39 A 22.317 22.317 0 0 1 334.995 18.442 Q 335.68 18.492 336.465 18.585 A 33.659 33.659 0 0 1 339.224 19.031 A 36.738 36.738 0 0 1 339.315 19.05 A 59.481 59.481 0 0 1 341.43 19.525 A 53.161 53.161 0 0 1 342.105 19.695 A 25.007 25.007 0 0 1 343.207 20.005 Q 343.873 20.211 344.43 20.43 A 6.8 6.8 0 0 1 344.557 21.327 Q 344.62 22.187 344.431 22.952 A 4.635 4.635 0 0 1 344.4 23.07 Q 344.07 24.27 343.245 25.23 Q 342.42 26.19 341.265 26.85 Q 340.11 27.51 338.775 27.855 Q 337.44 28.2 336.09 28.2 Q 334.92 28.2 333.87 27.93 A 6.425 6.425 0 0 1 332.651 27.487 A 5.496 5.496 0 0 1 332.01 27.12 A 3.725 3.725 0 0 1 331.173 26.367 A 3.309 3.309 0 0 1 330.795 25.785 A 2.883 2.883 0 0 1 330.498 24.734 Q 330.462 24.357 330.51 23.94 Z M 193.05 20.31 L 194.16 17.67 Q 195.282 18.408 196.811 19.074 A 24.326 24.326 0 0 0 196.86 19.095 Q 198.42 19.77 200.1 20.01 A 2.336 2.336 0 0 0 200.645 19.352 A 2.235 2.235 0 0 0 200.7 19.245 Q 200.91 18.81 200.91 18.27 Q 200.91 17.4 200.37 16.83 A 4.364 4.364 0 0 0 199.645 16.221 A 5.76 5.76 0 0 0 198.99 15.84 A 24.448 24.448 0 0 0 197.692 15.239 A 28.322 28.322 0 0 0 197.19 15.03 Q 196.23 14.64 195.39 14.13 Q 194.55 13.62 194.01 12.855 Q 193.484 12.11 193.47 10.98 A 5.003 5.003 0 0 1 193.47 10.92 A 4.056 4.056 0 0 1 193.636 9.737 A 3.314 3.314 0 0 1 194.28 8.55 A 4.772 4.772 0 0 1 195.918 7.309 A 5.869 5.869 0 0 1 196.395 7.11 A 7.95 7.95 0 0 1 199.078 6.63 A 8.956 8.956 0 0 1 199.17 6.63 Q 200.22 6.63 201.195 6.87 Q 202.17 7.11 203.01 7.53 L 202.08 9.93 A 5.706 5.706 0 0 0 200.263 8.897 A 7.007 7.007 0 0 0 199.605 8.7 Q 198.514 8.43 197.566 8.43 A 6.188 6.188 0 0 0 196.95 8.46 Q 196.38 8.82 196.185 9.285 A 2.663 2.663 0 0 0 196.042 9.725 A 2.009 2.009 0 0 0 195.99 10.17 A 1.987 1.987 0 0 0 196.099 10.84 A 1.724 1.724 0 0 0 196.53 11.505 Q 197.036 11.997 197.819 12.384 A 7.19 7.19 0 0 0 197.925 12.435 A 39.139 39.139 0 0 0 199.157 12.992 A 46.087 46.087 0 0 0 199.755 13.245 Q 200.73 13.65 201.585 14.175 Q 202.44 14.7 202.98 15.51 A 3.119 3.119 0 0 1 203.431 16.609 A 4.416 4.416 0 0 1 203.52 17.52 A 4.157 4.157 0 0 1 203.193 19.19 A 3.979 3.979 0 0 1 202.08 20.655 Q 200.64 21.87 198.36 21.87 A 8.602 8.602 0 0 1 196.733 21.709 A 10.601 10.601 0 0 1 195.84 21.495 A 11.561 11.561 0 0 1 194.483 21.011 Q 193.785 20.715 193.05 20.31 Z M 44.73 20.07 L 40.65 21.72 Q 38.88 21.75 37.545 21.165 A 6.335 6.335 0 0 1 35.694 19.947 A 5.984 5.984 0 0 1 35.31 19.545 Q 34.41 18.51 33.96 17.145 A 9.128 9.128 0 0 1 33.512 14.441 A 10.3 10.3 0 0 1 33.51 14.25 A 9.705 9.705 0 0 1 33.724 12.166 A 7.612 7.612 0 0 1 34.395 10.29 Q 35.28 8.58 36.84 7.605 A 6.459 6.459 0 0 1 40.221 6.631 A 7.724 7.724 0 0 1 40.35 6.63 A 6.711 6.711 0 0 1 41.388 6.707 A 5.478 5.478 0 0 1 42.06 6.855 Q 42.84 7.08 43.545 7.515 A 7.124 7.124 0 0 1 44.493 8.219 A 8.571 8.571 0 0 1 44.91 8.61 L 43.32 10.74 Q 42.18 9.84 40.83 9.225 A 8.244 8.244 0 0 0 39.196 8.67 A 6.977 6.977 0 0 0 38.16 8.52 A 8.201 8.201 0 0 0 37.009 10.308 A 7.453 7.453 0 0 0 36.765 10.89 A 7.574 7.574 0 0 0 36.331 12.893 A 9.117 9.117 0 0 0 36.3 13.65 Q 36.3 15.33 36.855 16.65 A 5.005 5.005 0 0 0 37.72 18.045 A 4.514 4.514 0 0 0 38.49 18.735 A 4.12 4.12 0 0 0 40.275 19.439 A 5.441 5.441 0 0 0 41.1 19.5 A 6.291 6.291 0 0 0 41.755 19.464 Q 42.147 19.423 42.585 19.335 Q 43.41 19.17 44.22 18.81 L 44.73 20.07 Z M 57.18 20.07 L 53.1 21.72 Q 51.33 21.75 49.995 21.165 A 6.335 6.335 0 0 1 48.144 19.947 A 5.984 5.984 0 0 1 47.76 19.545 Q 46.86 18.51 46.41 17.145 A 9.128 9.128 0 0 1 45.962 14.441 A 10.3 10.3 0 0 1 45.96 14.25 A 9.705 9.705 0 0 1 46.174 12.166 A 7.612 7.612 0 0 1 46.845 10.29 Q 47.73 8.58 49.29 7.605 A 6.459 6.459 0 0 1 52.671 6.631 A 7.724 7.724 0 0 1 52.8 6.63 A 6.711 6.711 0 0 1 53.838 6.707 A 5.478 5.478 0 0 1 54.51 6.855 Q 55.29 7.08 55.995 7.515 A 7.124 7.124 0 0 1 56.943 8.219 A 8.571 8.571 0 0 1 57.36 8.61 L 55.77 10.74 Q 54.63 9.84 53.28 9.225 A 8.244 8.244 0 0 0 51.646 8.67 A 6.977 6.977 0 0 0 50.61 8.52 A 8.201 8.201 0 0 0 49.459 10.308 A 7.453 7.453 0 0 0 49.215 10.89 A 7.574 7.574 0 0 0 48.781 12.893 A 9.117 9.117 0 0 0 48.75 13.65 Q 48.75 15.33 49.305 16.65 A 5.005 5.005 0 0 0 50.17 18.045 A 4.514 4.514 0 0 0 50.94 18.735 A 4.12 4.12 0 0 0 52.725 19.439 A 5.441 5.441 0 0 0 53.55 19.5 A 6.291 6.291 0 0 0 54.205 19.464 Q 54.597 19.423 55.035 19.335 Q 55.86 19.17 56.67 18.81 L 57.18 20.07 Z M 32.46 20.34 L 29.43 21.72 A 0.891 0.891 0 0 1 29.198 21.663 Q 28.943 21.567 28.62 21.315 Q 28.14 20.94 27.72 20.37 A 3.936 3.936 0 0 1 27.376 19.818 A 2.969 2.969 0 0 1 27.15 19.23 L 27.15 18.81 L 27.15 11.7 A 9.69 9.69 0 0 0 27.124 10.963 Q 27.068 10.237 26.894 9.764 A 2.277 2.277 0 0 0 26.82 9.585 A 2.164 2.164 0 0 0 26.058 8.707 A 2.919 2.919 0 0 0 25.68 8.49 Q 24.84 8.52 23.865 8.67 A 18.761 18.761 0 0 0 23.292 8.767 Q 22.997 8.821 22.747 8.88 A 7.574 7.574 0 0 0 22.29 9 L 22.05 12.12 L 20.46 12.24 A 6.309 6.309 0 0 1 20.047 11.234 A 7.951 7.951 0 0 1 19.86 10.53 Q 19.65 9.57 19.59 8.64 A 10.794 10.794 0 0 1 20.243 8.302 Q 20.693 8.086 21.225 7.875 Q 22.17 7.5 23.16 7.185 Q 24.15 6.87 24.99 6.675 A 11.779 11.779 0 0 1 25.432 6.581 Q 25.957 6.48 26.28 6.48 Q 26.94 6.48 27.585 6.825 Q 28.23 7.17 28.755 7.665 Q 29.28 8.16 29.49 8.58 A 2.263 2.263 0 0 1 29.657 8.985 Q 29.735 9.237 29.775 9.54 A 5.535 5.535 0 0 1 29.806 9.863 Q 29.85 10.483 29.85 11.7 L 29.85 18.69 A 0.755 0.755 0 0 0 29.869 18.864 Q 29.897 18.985 29.969 19.067 A 0.438 0.438 0 0 0 30.075 19.155 A 0.911 0.911 0 0 0 30.357 19.263 Q 30.483 19.29 30.63 19.29 A 2.753 2.753 0 0 0 31.038 19.258 A 3.49 3.49 0 0 0 31.335 19.2 Q 31.71 19.11 32.01 19.02 L 32.46 20.34 Z M 98.31 20.34 L 95.28 21.72 A 0.891 0.891 0 0 1 95.048 21.663 Q 94.793 21.567 94.47 21.315 Q 93.99 20.94 93.57 20.37 A 3.936 3.936 0 0 1 93.226 19.818 A 2.969 2.969 0 0 1 93 19.23 L 93 18.81 L 93 11.7 A 9.69 9.69 0 0 0 92.974 10.963 Q 92.918 10.237 92.744 9.764 A 2.277 2.277 0 0 0 92.67 9.585 A 2.164 2.164 0 0 0 91.908 8.707 A 2.919 2.919 0 0 0 91.53 8.49 Q 90.69 8.52 89.715 8.67 A 18.761 18.761 0 0 0 89.142 8.767 Q 88.847 8.821 88.597 8.88 A 7.574 7.574 0 0 0 88.14 9 L 87.9 12.12 L 86.31 12.24 A 6.309 6.309 0 0 1 85.897 11.234 A 7.951 7.951 0 0 1 85.71 10.53 Q 85.5 9.57 85.44 8.64 A 10.794 10.794 0 0 1 86.093 8.302 Q 86.543 8.086 87.075 7.875 Q 88.02 7.5 89.01 7.185 Q 90 6.87 90.84 6.675 A 11.779 11.779 0 0 1 91.282 6.581 Q 91.807 6.48 92.13 6.48 Q 92.79 6.48 93.435 6.825 Q 94.08 7.17 94.605 7.665 Q 95.13 8.16 95.34 8.58 A 2.263 2.263 0 0 1 95.507 8.985 Q 95.585 9.237 95.625 9.54 A 5.535 5.535 0 0 1 95.656 9.863 Q 95.7 10.483 95.7 11.7 L 95.7 18.69 A 0.755 0.755 0 0 0 95.719 18.864 Q 95.747 18.985 95.819 19.067 A 0.438 0.438 0 0 0 95.925 19.155 A 0.911 0.911 0 0 0 96.207 19.263 Q 96.333 19.29 96.48 19.29 A 2.753 2.753 0 0 0 96.888 19.258 A 3.49 3.49 0 0 0 97.185 19.2 Q 97.56 19.11 97.86 19.02 L 98.31 20.34 Z M 219.33 20.34 L 216.3 21.72 A 0.891 0.891 0 0 1 216.068 21.663 Q 215.813 21.567 215.49 21.315 Q 215.01 20.94 214.59 20.37 A 3.936 3.936 0 0 1 214.246 19.818 A 2.969 2.969 0 0 1 214.02 19.23 L 214.02 18.81 L 214.02 11.7 A 9.69 9.69 0 0 0 213.994 10.963 Q 213.938 10.237 213.764 9.764 A 2.277 2.277 0 0 0 213.69 9.585 A 2.164 2.164 0 0 0 212.928 8.707 A 2.919 2.919 0 0 0 212.55 8.49 Q 211.71 8.52 210.735 8.67 A 18.761 18.761 0 0 0 210.162 8.767 Q 209.867 8.821 209.617 8.88 A 7.574 7.574 0 0 0 209.16 9 L 208.92 12.12 L 207.33 12.24 A 6.309 6.309 0 0 1 206.917 11.234 A 7.951 7.951 0 0 1 206.73 10.53 Q 206.52 9.57 206.46 8.64 A 10.794 10.794 0 0 1 207.113 8.302 Q 207.563 8.086 208.095 7.875 Q 209.04 7.5 210.03 7.185 Q 211.02 6.87 211.86 6.675 A 11.779 11.779 0 0 1 212.302 6.581 Q 212.827 6.48 213.15 6.48 Q 213.81 6.48 214.455 6.825 Q 215.1 7.17 215.625 7.665 Q 216.15 8.16 216.36 8.58 A 2.263 2.263 0 0 1 216.527 8.985 Q 216.605 9.237 216.645 9.54 A 5.535 5.535 0 0 1 216.676 9.863 Q 216.72 10.483 216.72 11.7 L 216.72 18.69 A 0.755 0.755 0 0 0 216.739 18.864 Q 216.767 18.985 216.839 19.067 A 0.438 0.438 0 0 0 216.945 19.155 A 0.911 0.911 0 0 0 217.227 19.263 Q 217.353 19.29 217.5 19.29 A 2.753 2.753 0 0 0 217.908 19.258 A 3.49 3.49 0 0 0 218.205 19.2 Q 218.58 19.11 218.88 19.02 L 219.33 20.34 Z M 297.48 20.34 L 294.45 21.72 A 0.891 0.891 0 0 1 294.218 21.663 Q 293.963 21.567 293.64 21.315 Q 293.16 20.94 292.74 20.37 A 3.936 3.936 0 0 1 292.396 19.818 A 2.969 2.969 0 0 1 292.17 19.23 L 292.17 18.81 L 292.17 11.7 A 9.69 9.69 0 0 0 292.144 10.963 Q 292.088 10.237 291.914 9.764 A 2.277 2.277 0 0 0 291.84 9.585 A 2.164 2.164 0 0 0 291.078 8.707 A 2.919 2.919 0 0 0 290.7 8.49 Q 289.86 8.52 288.885 8.67 A 18.761 18.761 0 0 0 288.312 8.767 Q 288.017 8.821 287.767 8.88 A 7.574 7.574 0 0 0 287.31 9 L 287.07 12.12 L 285.48 12.24 A 6.309 6.309 0 0 1 285.067 11.234 A 7.951 7.951 0 0 1 284.88 10.53 Q 284.67 9.57 284.61 8.64 A 10.794 10.794 0 0 1 285.263 8.302 Q 285.713 8.086 286.245 7.875 Q 287.19 7.5 288.18 7.185 Q 289.17 6.87 290.01 6.675 A 11.779 11.779 0 0 1 290.452 6.581 Q 290.977 6.48 291.3 6.48 Q 291.96 6.48 292.605 6.825 Q 293.25 7.17 293.775 7.665 Q 294.3 8.16 294.51 8.58 A 2.263 2.263 0 0 1 294.677 8.985 Q 294.755 9.237 294.795 9.54 A 5.535 5.535 0 0 1 294.826 9.863 Q 294.87 10.483 294.87 11.7 L 294.87 18.69 A 0.755 0.755 0 0 0 294.889 18.864 Q 294.917 18.985 294.989 19.067 A 0.438 0.438 0 0 0 295.095 19.155 A 0.911 0.911 0 0 0 295.377 19.263 Q 295.503 19.29 295.65 19.29 A 2.753 2.753 0 0 0 296.058 19.258 A 3.49 3.49 0 0 0 296.355 19.2 Q 296.73 19.11 297.03 19.02 L 297.48 20.34 Z M 329.34 20.34 L 326.31 21.72 A 0.891 0.891 0 0 1 326.078 21.663 Q 325.823 21.567 325.5 21.315 Q 325.02 20.94 324.6 20.37 A 3.936 3.936 0 0 1 324.256 19.818 A 2.969 2.969 0 0 1 324.03 19.23 L 324.03 18.81 L 324.03 11.7 A 9.69 9.69 0 0 0 324.004 10.963 Q 323.948 10.237 323.774 9.764 A 2.277 2.277 0 0 0 323.7 9.585 A 2.164 2.164 0 0 0 322.938 8.707 A 2.919 2.919 0 0 0 322.56 8.49 Q 321.72 8.52 320.745 8.67 A 18.761 18.761 0 0 0 320.172 8.767 Q 319.877 8.821 319.627 8.88 A 7.574 7.574 0 0 0 319.17 9 L 318.93 12.12 L 317.34 12.24 A 6.309 6.309 0 0 1 316.927 11.234 A 7.951 7.951 0 0 1 316.74 10.53 Q 316.53 9.57 316.47 8.64 A 10.794 10.794 0 0 1 317.123 8.302 Q 317.573 8.086 318.105 7.875 Q 319.05 7.5 320.04 7.185 Q 321.03 6.87 321.87 6.675 A 11.779 11.779 0 0 1 322.312 6.581 Q 322.837 6.48 323.16 6.48 Q 323.82 6.48 324.465 6.825 Q 325.11 7.17 325.635 7.665 Q 326.16 8.16 326.37 8.58 A 2.263 2.263 0 0 1 326.537 8.985 Q 326.615 9.237 326.655 9.54 A 5.535 5.535 0 0 1 326.686 9.863 Q 326.73 10.483 326.73 11.7 L 326.73 18.69 A 0.755 0.755 0 0 0 326.749 18.864 Q 326.777 18.985 326.849 19.067 A 0.438 0.438 0 0 0 326.955 19.155 A 0.911 0.911 0 0 0 327.237 19.263 Q 327.363 19.29 327.51 19.29 A 2.753 2.753 0 0 0 327.918 19.258 A 3.49 3.49 0 0 0 328.215 19.2 Q 328.59 19.11 328.89 19.02 L 329.34 20.34 Z M 262.77 21.27 L 260.4 21.27 L 261.09 1.77 L 264.72 1.77 L 262.41 3.21 L 263.07 8.67 L 262.77 21.27 Z M 108.36 19.92 L 104.46 21.72 A 2.047 2.047 0 0 1 104.363 21.722 Q 103.776 21.722 103.125 21.39 Q 102.42 21.03 101.925 20.43 A 2.469 2.469 0 0 1 101.623 19.976 A 1.701 1.701 0 0 1 101.43 19.2 L 101.43 7.62 L 102.69 3.6 L 104.1 3.6 L 104.1 7.86 L 104.1 17.61 Q 104.1 18.51 104.31 18.87 Q 104.52 19.23 105.09 19.23 Q 105.533 19.23 106.094 19.094 A 7.11 7.11 0 0 0 106.425 19.005 A 25.74 25.74 0 0 0 107.34 18.718 A 21.256 21.256 0 0 0 107.85 18.54 L 108.36 19.92 Z M 81.3 21.27 L 78.63 21.27 L 78.63 12.39 Q 78.63 10.56 78.06 9.855 A 2.165 2.165 0 0 0 77.633 9.446 A 1.559 1.559 0 0 0 76.71 9.15 A 2.6 2.6 0 0 0 76.228 9.199 Q 75.988 9.244 75.719 9.332 A 5.895 5.895 0 0 0 75.285 9.495 A 13.257 13.257 0 0 0 74.236 9.991 A 15.887 15.887 0 0 0 73.59 10.35 A 14.313 14.313 0 0 0 72.381 11.14 A 12.454 12.454 0 0 0 72 11.43 L 71.46 10.17 A 37.906 37.906 0 0 1 73.193 9.02 A 31.979 31.979 0 0 1 74.205 8.415 Q 75.54 7.65 76.575 7.2 A 9.51 9.51 0 0 1 77.062 7.003 Q 77.745 6.75 78.15 6.75 A 2.941 2.941 0 0 1 79.056 7.055 A 3.482 3.482 0 0 1 79.26 7.17 Q 79.8 7.5 80.235 7.92 A 3.938 3.938 0 0 1 80.567 8.281 Q 80.724 8.476 80.833 8.67 A 2.27 2.27 0 0 1 80.88 8.76 A 1.867 1.867 0 0 1 80.992 9.004 Q 81.041 9.133 81.081 9.285 A 3.719 3.719 0 0 1 81.12 9.45 Q 81.21 9.87 81.255 10.545 A 17.149 17.149 0 0 1 81.281 11.053 Q 81.3 11.581 81.3 12.27 L 81.3 21.27 Z M 147.27 21.27 L 144.6 21.27 L 144.6 12.39 Q 144.6 10.56 144.03 9.855 A 2.165 2.165 0 0 0 143.603 9.446 A 1.559 1.559 0 0 0 142.68 9.15 A 2.6 2.6 0 0 0 142.198 9.199 Q 141.958 9.244 141.689 9.332 A 5.895 5.895 0 0 0 141.255 9.495 A 13.257 13.257 0 0 0 140.206 9.991 A 15.887 15.887 0 0 0 139.56 10.35 A 14.313 14.313 0 0 0 138.351 11.14 A 12.454 12.454 0 0 0 137.97 11.43 L 137.43 10.17 A 37.906 37.906 0 0 1 139.163 9.02 A 31.979 31.979 0 0 1 140.175 8.415 Q 141.51 7.65 142.545 7.2 A 9.51 9.51 0 0 1 143.032 7.003 Q 143.715 6.75 144.12 6.75 A 2.941 2.941 0 0 1 145.026 7.055 A 3.482 3.482 0 0 1 145.23 7.17 Q 145.77 7.5 146.205 7.92 A 3.938 3.938 0 0 1 146.537 8.281 Q 146.694 8.476 146.803 8.67 A 2.27 2.27 0 0 1 146.85 8.76 A 1.867 1.867 0 0 1 146.962 9.004 Q 147.011 9.133 147.051 9.285 A 3.719 3.719 0 0 1 147.09 9.45 Q 147.18 9.87 147.225 10.545 A 17.149 17.149 0 0 1 147.251 11.053 Q 147.27 11.581 147.27 12.27 L 147.27 21.27 Z M 312.33 21.27 L 309.66 21.27 L 309.66 12.39 Q 309.66 10.56 309.09 9.855 A 2.165 2.165 0 0 0 308.663 9.446 A 1.559 1.559 0 0 0 307.74 9.15 A 2.6 2.6 0 0 0 307.258 9.199 Q 307.018 9.244 306.749 9.332 A 5.895 5.895 0 0 0 306.315 9.495 A 13.257 13.257 0 0 0 305.266 9.991 A 15.887 15.887 0 0 0 304.62 10.35 A 14.313 14.313 0 0 0 303.411 11.14 A 12.454 12.454 0 0 0 303.03 11.43 L 302.49 10.17 A 37.906 37.906 0 0 1 304.223 9.02 A 31.979 31.979 0 0 1 305.235 8.415 Q 306.57 7.65 307.605 7.2 A 9.51 9.51 0 0 1 308.092 7.003 Q 308.775 6.75 309.18 6.75 A 2.941 2.941 0 0 1 310.086 7.055 A 3.482 3.482 0 0 1 310.29 7.17 Q 310.83 7.5 311.265 7.92 A 3.938 3.938 0 0 1 311.597 8.281 Q 311.754 8.476 311.863 8.67 A 2.27 2.27 0 0 1 311.91 8.76 A 1.867 1.867 0 0 1 312.022 9.004 Q 312.071 9.133 312.111 9.285 A 3.719 3.719 0 0 1 312.15 9.45 Q 312.24 9.87 312.285 10.545 A 17.149 17.149 0 0 1 312.311 11.053 Q 312.33 11.581 312.33 12.27 L 312.33 21.27 Z M 276.33 1.77 L 277.65 3 L 277.17 8.67 L 277.38 21.27 L 280.08 21.27 L 279.75 1.77 L 276.33 1.77 Z M 124.98 21.87 Q 123.09 21.87 121.545 20.925 A 6.752 6.752 0 0 1 119.312 18.674 A 8.125 8.125 0 0 1 119.07 18.255 A 7.632 7.632 0 0 1 118.272 15.867 A 10.217 10.217 0 0 1 118.14 14.19 Q 118.14 11.833 119.051 10.156 A 6.458 6.458 0 0 1 119.085 10.095 A 7.003 7.003 0 0 1 120.419 8.368 A 6.225 6.225 0 0 1 121.575 7.515 Q 123.12 6.63 124.92 6.63 Q 126.78 6.63 128.265 7.545 Q 129.75 8.46 130.635 10.185 A 7.676 7.676 0 0 1 131.322 12.209 Q 131.495 13.082 131.517 14.082 A 13.32 13.32 0 0 1 131.52 14.37 A 11.462 11.462 0 0 1 131.393 16.121 Q 131.242 17.101 130.909 17.914 A 6.337 6.337 0 0 1 130.62 18.525 A 6.7 6.7 0 0 1 129.48 20.08 A 5.734 5.734 0 0 1 128.235 21.03 Q 126.75 21.87 124.98 21.87 Z M 185.01 21.87 Q 183.12 21.87 181.575 20.925 A 6.752 6.752 0 0 1 179.342 18.674 A 8.125 8.125 0 0 1 179.1 18.255 A 7.632 7.632 0 0 1 178.302 15.867 A 10.217 10.217 0 0 1 178.17 14.19 Q 178.17 11.833 179.081 10.156 A 6.458 6.458 0 0 1 179.115 10.095 A 7.003 7.003 0 0 1 180.449 8.368 A 6.225 6.225 0 0 1 181.605 7.515 Q 183.15 6.63 184.95 6.63 Q 186.81 6.63 188.295 7.545 Q 189.78 8.46 190.665 10.185 A 7.676 7.676 0 0 1 191.352 12.209 Q 191.525 13.082 191.547 14.082 A 13.32 13.32 0 0 1 191.55 14.37 A 11.462 11.462 0 0 1 191.423 16.121 Q 191.272 17.101 190.939 17.914 A 6.337 6.337 0 0 1 190.65 18.525 A 6.7 6.7 0 0 1 189.51 20.08 A 5.734 5.734 0 0 1 188.265 21.03 Q 186.78 21.87 185.01 21.87 Z M 264.72 1.77 L 262.2 3.12 L 268.83 21.48 L 271.44 20.79 L 270.93 19.08 L 264.72 1.77 Z M 164.16 21.27 L 161.37 21.27 L 161.37 1.83 L 164.16 1.83 L 164.16 21.27 Z M 271.44 20.79 L 277.89 2.88 L 276.33 1.77 L 269.79 20.19 L 271.44 20.79 Z M 27.57 19.47 L 23.91 21.69 A 7.701 7.701 0 0 1 23.409 21.729 Q 22.206 21.781 21.372 21.402 A 3.014 3.014 0 0 1 21.225 21.33 A 4.121 4.121 0 0 1 20.373 20.748 A 3.278 3.278 0 0 1 19.695 19.905 A 4.092 4.092 0 0 1 19.332 19.051 A 3.215 3.215 0 0 1 19.2 18.15 A 3.233 3.233 0 0 1 19.467 16.88 A 4.093 4.093 0 0 1 19.695 16.425 A 3.455 3.455 0 0 1 20.369 15.603 Q 20.689 15.312 21.103 15.056 A 6.238 6.238 0 0 1 21.3 14.94 L 27.9 14.76 L 27.78 16.38 L 27.3 16.35 A 13.856 13.856 0 0 0 25.998 16.274 Q 25.902 16.273 25.805 16.273 A 15.856 15.856 0 0 0 25.545 16.275 A 9.795 9.795 0 0 0 24.448 16.352 A 8.193 8.193 0 0 0 23.835 16.455 Q 23.068 16.614 22.567 16.996 A 2.338 2.338 0 0 0 22.53 17.025 A 1.319 1.319 0 0 0 22.027 17.986 A 1.886 1.886 0 0 0 22.02 18.15 A 1.612 1.612 0 0 0 22.169 18.821 A 1.921 1.921 0 0 0 22.215 18.915 A 1.537 1.537 0 0 0 22.706 19.468 A 1.86 1.86 0 0 0 22.8 19.53 Q 23.501 19.554 24.241 19.403 A 7.212 7.212 0 0 0 24.6 19.32 A 13.602 13.602 0 0 0 25.814 18.948 A 11.547 11.547 0 0 0 26.325 18.75 Q 26.934 18.497 27.34 18.315 A 16.967 16.967 0 0 0 27.57 18.21 L 27.57 19.47 Z M 93.42 19.47 L 89.76 21.69 A 7.701 7.701 0 0 1 89.259 21.729 Q 88.056 21.781 87.222 21.402 A 3.014 3.014 0 0 1 87.075 21.33 A 4.121 4.121 0 0 1 86.223 20.748 A 3.278 3.278 0 0 1 85.545 19.905 A 4.092 4.092 0 0 1 85.182 19.051 A 3.215 3.215 0 0 1 85.05 18.15 A 3.233 3.233 0 0 1 85.317 16.88 A 4.093 4.093 0 0 1 85.545 16.425 A 3.455 3.455 0 0 1 86.219 15.603 Q 86.539 15.312 86.953 15.056 A 6.238 6.238 0 0 1 87.15 14.94 L 93.75 14.76 L 93.63 16.38 L 93.15 16.35 A 13.856 13.856 0 0 0 91.848 16.274 Q 91.752 16.273 91.655 16.273 A 15.856 15.856 0 0 0 91.395 16.275 A 9.795 9.795 0 0 0 90.298 16.352 A 8.193 8.193 0 0 0 89.685 16.455 Q 88.918 16.614 88.417 16.996 A 2.338 2.338 0 0 0 88.38 17.025 A 1.319 1.319 0 0 0 87.877 17.986 A 1.886 1.886 0 0 0 87.87 18.15 A 1.612 1.612 0 0 0 88.019 18.821 A 1.921 1.921 0 0 0 88.065 18.915 A 1.537 1.537 0 0 0 88.556 19.468 A 1.86 1.86 0 0 0 88.65 19.53 Q 89.351 19.554 90.091 19.403 A 7.212 7.212 0 0 0 90.45 19.32 A 13.602 13.602 0 0 0 91.664 18.948 A 11.547 11.547 0 0 0 92.175 18.75 Q 92.784 18.497 93.19 18.315 A 16.967 16.967 0 0 0 93.42 18.21 L 93.42 19.47 Z M 214.44 19.47 L 210.78 21.69 A 7.701 7.701 0 0 1 210.279 21.729 Q 209.076 21.781 208.242 21.402 A 3.014 3.014 0 0 1 208.095 21.33 A 4.121 4.121 0 0 1 207.243 20.748 A 3.278 3.278 0 0 1 206.565 19.905 A 4.092 4.092 0 0 1 206.202 19.051 A 3.215 3.215 0 0 1 206.07 18.15 A 3.233 3.233 0 0 1 206.337 16.88 A 4.093 4.093 0 0 1 206.565 16.425 A 3.455 3.455 0 0 1 207.239 15.603 Q 207.559 15.312 207.973 15.056 A 6.238 6.238 0 0 1 208.17 14.94 L 214.77 14.76 L 214.65 16.38 L 214.17 16.35 A 13.856 13.856 0 0 0 212.868 16.274 Q 212.772 16.273 212.675 16.273 A 15.856 15.856 0 0 0 212.415 16.275 A 9.795 9.795 0 0 0 211.318 16.352 A 8.193 8.193 0 0 0 210.705 16.455 Q 209.938 16.614 209.437 16.996 A 2.338 2.338 0 0 0 209.4 17.025 A 1.319 1.319 0 0 0 208.897 17.986 A 1.886 1.886 0 0 0 208.89 18.15 A 1.612 1.612 0 0 0 209.039 18.821 A 1.921 1.921 0 0 0 209.085 18.915 A 1.537 1.537 0 0 0 209.576 19.468 A 1.86 1.86 0 0 0 209.67 19.53 Q 210.371 19.554 211.111 19.403 A 7.212 7.212 0 0 0 211.47 19.32 A 13.602 13.602 0 0 0 212.684 18.948 A 11.547 11.547 0 0 0 213.195 18.75 Q 213.804 18.497 214.21 18.315 A 16.967 16.967 0 0 0 214.44 18.21 L 214.44 19.47 Z M 292.59 19.47 L 288.93 21.69 A 7.701 7.701 0 0 1 288.429 21.729 Q 287.226 21.781 286.392 21.402 A 3.014 3.014 0 0 1 286.245 21.33 A 4.121 4.121 0 0 1 285.393 20.748 A 3.278 3.278 0 0 1 284.715 19.905 A 4.092 4.092 0 0 1 284.352 19.051 A 3.215 3.215 0 0 1 284.22 18.15 A 3.233 3.233 0 0 1 284.487 16.88 A 4.093 4.093 0 0 1 284.715 16.425 A 3.455 3.455 0 0 1 285.389 15.603 Q 285.709 15.312 286.123 15.056 A 6.238 6.238 0 0 1 286.32 14.94 L 292.92 14.76 L 292.8 16.38 L 292.32 16.35 A 13.856 13.856 0 0 0 291.018 16.274 Q 290.922 16.273 290.825 16.273 A 15.856 15.856 0 0 0 290.565 16.275 A 9.795 9.795 0 0 0 289.468 16.352 A 8.193 8.193 0 0 0 288.855 16.455 Q 288.088 16.614 287.587 16.996 A 2.338 2.338 0 0 0 287.55 17.025 A 1.319 1.319 0 0 0 287.047 17.986 A 1.886 1.886 0 0 0 287.04 18.15 A 1.612 1.612 0 0 0 287.189 18.821 A 1.921 1.921 0 0 0 287.235 18.915 A 1.537 1.537 0 0 0 287.726 19.468 A 1.86 1.86 0 0 0 287.82 19.53 Q 288.521 19.554 289.261 19.403 A 7.212 7.212 0 0 0 289.62 19.32 A 13.602 13.602 0 0 0 290.834 18.948 A 11.547 11.547 0 0 0 291.345 18.75 Q 291.954 18.497 292.36 18.315 A 16.967 16.967 0 0 0 292.59 18.21 L 292.59 19.47 Z M 324.45 19.47 L 320.79 21.69 A 7.701 7.701 0 0 1 320.289 21.729 Q 319.086 21.781 318.252 21.402 A 3.014 3.014 0 0 1 318.105 21.33 A 4.121 4.121 0 0 1 317.253 20.748 A 3.278 3.278 0 0 1 316.575 19.905 A 4.092 4.092 0 0 1 316.212 19.051 A 3.215 3.215 0 0 1 316.08 18.15 A 3.233 3.233 0 0 1 316.347 16.88 A 4.093 4.093 0 0 1 316.575 16.425 A 3.455 3.455 0 0 1 317.249 15.603 Q 317.569 15.312 317.983 15.056 A 6.238 6.238 0 0 1 318.18 14.94 L 324.78 14.76 L 324.66 16.38 L 324.18 16.35 A 13.856 13.856 0 0 0 322.878 16.274 Q 322.782 16.273 322.685 16.273 A 15.856 15.856 0 0 0 322.425 16.275 A 9.795 9.795 0 0 0 321.328 16.352 A 8.193 8.193 0 0 0 320.715 16.455 Q 319.948 16.614 319.447 16.996 A 2.338 2.338 0 0 0 319.41 17.025 A 1.319 1.319 0 0 0 318.907 17.986 A 1.886 1.886 0 0 0 318.9 18.15 A 1.612 1.612 0 0 0 319.049 18.821 A 1.921 1.921 0 0 0 319.095 18.915 A 1.537 1.537 0 0 0 319.586 19.468 A 1.86 1.86 0 0 0 319.68 19.53 Q 320.381 19.554 321.121 19.403 A 7.212 7.212 0 0 0 321.48 19.32 A 13.602 13.602 0 0 0 322.694 18.948 A 11.547 11.547 0 0 0 323.205 18.75 Q 323.814 18.497 324.22 18.315 A 16.967 16.967 0 0 0 324.45 18.21 L 324.45 19.47 Z M 224.231 16.084 A 7.846 7.846 0 0 0 227.13 16.65 Q 228.6 16.65 230.025 16.095 Q 231.45 15.54 232.395 14.4 A 3.96 3.96 0 0 0 233.159 12.947 A 4.947 4.947 0 0 0 233.34 11.58 A 5.557 5.557 0 0 0 233.29 10.821 A 4.199 4.199 0 0 0 232.425 8.745 Q 231.51 7.59 230.1 6.99 Q 228.69 6.39 227.13 6.39 Q 225.63 6.39 224.19 6.975 A 6.789 6.789 0 0 0 224.1 7.012 A 5.809 5.809 0 0 0 221.82 8.7 Q 220.89 9.84 220.89 11.52 A 5.495 5.495 0 0 0 220.949 12.339 A 4.063 4.063 0 0 0 221.835 14.37 Q 222.78 15.51 224.22 16.08 A 8.782 8.782 0 0 0 224.231 16.084 Z M 334.241 16.084 A 7.846 7.846 0 0 0 337.14 16.65 Q 338.61 16.65 340.035 16.095 Q 341.46 15.54 342.405 14.4 A 3.96 3.96 0 0 0 343.169 12.947 A 4.947 4.947 0 0 0 343.35 11.58 A 5.557 5.557 0 0 0 343.3 10.821 A 4.199 4.199 0 0 0 342.435 8.745 Q 341.52 7.59 340.11 6.99 Q 338.7 6.39 337.14 6.39 Q 335.64 6.39 334.2 6.975 A 6.789 6.789 0 0 0 334.11 7.012 A 5.809 5.809 0 0 0 331.83 8.7 Q 330.9 9.84 330.9 11.52 A 5.495 5.495 0 0 0 330.959 12.339 A 4.063 4.063 0 0 0 331.845 14.37 Q 332.79 15.51 334.23 16.08 A 8.782 8.782 0 0 0 334.241 16.084 Z M 63.54 21.27 L 60.87 21.27 L 60.87 7.86 L 62.34 6.75 L 63.54 7.8 L 63.54 21.27 Z M 72.03 21.27 L 69.36 21.27 L 69.36 7.86 L 70.83 6.75 L 72.03 7.8 L 72.03 21.27 Z M 114.78 21.27 L 112.11 21.27 L 112.11 7.86 L 113.58 6.75 L 114.78 7.8 L 114.78 21.27 Z M 138 21.27 L 135.33 21.27 L 135.33 7.86 L 136.8 6.75 L 138 7.8 L 138 21.27 Z M 303.06 21.27 L 300.39 21.27 L 300.39 7.86 L 301.86 6.75 L 303.06 7.8 L 303.06 21.27 Z M 364.38 21.27 L 361.71 21.27 L 361.71 7.86 L 363.18 6.75 L 364.38 7.8 L 364.38 21.27 Z M 125.31 19.92 A 5.04 5.04 0 0 0 126.287 19.821 A 6.097 6.097 0 0 0 126.75 19.71 Q 127.59 19.14 128.01 18.27 Q 128.43 17.4 128.565 16.44 A 14.885 14.885 0 0 0 128.664 15.552 Q 128.7 15.102 128.7 14.7 A 11.822 11.822 0 0 0 128.542 12.731 A 9.942 9.942 0 0 0 128.295 11.64 A 5.932 5.932 0 0 0 127.81 10.437 A 4.548 4.548 0 0 0 127.005 9.36 A 2.985 2.985 0 0 0 125.326 8.538 A 4.187 4.187 0 0 0 124.68 8.49 A 4.317 4.317 0 0 0 123.744 8.589 A 3.814 3.814 0 0 0 123.39 8.685 A 4.917 4.917 0 0 0 122.937 8.856 Q 122.632 8.99 122.4 9.15 A 5.295 5.295 0 0 0 121.391 11.042 A 6.261 6.261 0 0 0 121.305 11.355 A 10.549 10.549 0 0 0 120.995 13.542 A 9.678 9.678 0 0 0 120.99 13.86 Q 120.99 15.42 121.44 16.815 Q 121.89 18.21 122.85 19.065 A 3.325 3.325 0 0 0 124.551 19.86 A 4.593 4.593 0 0 0 125.31 19.92 Z M 185.34 19.92 A 5.04 5.04 0 0 0 186.317 19.821 A 6.097 6.097 0 0 0 186.78 19.71 Q 187.62 19.14 188.04 18.27 Q 188.46 17.4 188.595 16.44 A 14.885 14.885 0 0 0 188.694 15.552 Q 188.73 15.102 188.73 14.7 A 11.822 11.822 0 0 0 188.572 12.731 A 9.942 9.942 0 0 0 188.325 11.64 A 5.932 5.932 0 0 0 187.84 10.437 A 4.548 4.548 0 0 0 187.035 9.36 A 2.985 2.985 0 0 0 185.356 8.538 A 4.187 4.187 0 0 0 184.71 8.49 A 4.317 4.317 0 0 0 183.774 8.589 A 3.814 3.814 0 0 0 183.42 8.685 A 4.917 4.917 0 0 0 182.967 8.856 Q 182.662 8.99 182.43 9.15 A 5.295 5.295 0 0 0 181.421 11.042 A 6.261 6.261 0 0 0 181.335 11.355 A 10.549 10.549 0 0 0 181.025 13.542 A 9.678 9.678 0 0 0 181.02 13.86 Q 181.02 15.42 181.47 16.815 Q 181.92 18.21 182.88 19.065 A 3.325 3.325 0 0 0 184.581 19.86 A 4.593 4.593 0 0 0 185.34 19.92 Z M 363.51 13.83 L 362.91 12.09 L 367.53 7.17 Q 368.55 6.75 369.405 6.84 Q 370.26 6.93 370.98 7.38 Q 371.01 7.95 370.98 8.565 Q 370.95 9.18 370.89 9.81 Q 370.83 10.44 370.71 11.055 Q 370.59 11.67 370.44 12.24 L 368.82 12.24 L 368.49 8.94 A 10.049 10.049 0 0 0 367.828 9.348 Q 367.354 9.664 366.825 10.08 A 15.425 15.425 0 0 0 365.581 11.176 A 18.119 18.119 0 0 0 365.025 11.745 Q 364.14 12.69 363.51 13.83 Z M 229.14 14.73 A 4.738 4.738 0 0 0 229.714 14.177 Q 230.097 13.735 230.28 13.26 A 4.82 4.82 0 0 0 230.495 12.549 A 3.59 3.59 0 0 0 230.58 11.79 Q 230.58 10.83 230.115 9.975 Q 229.65 9.12 228.84 8.58 A 3.487 3.487 0 0 0 227.354 8.03 A 4.336 4.336 0 0 0 226.95 7.995 Q 225.93 7.952 224.775 8.513 A 6.987 6.987 0 0 0 224.64 8.58 A 4.896 4.896 0 0 0 224.21 9.184 Q 223.978 9.572 223.86 9.96 Q 223.65 10.65 223.65 11.34 A 4.829 4.829 0 0 0 223.79 12.529 A 3.789 3.789 0 0 0 224.31 13.71 Q 224.97 14.7 226.2 15.015 Q 227.321 15.302 228.842 14.829 A 8.822 8.822 0 0 0 229.14 14.73 Z M 339.15 14.73 A 4.738 4.738 0 0 0 339.724 14.177 Q 340.107 13.735 340.29 13.26 A 4.82 4.82 0 0 0 340.505 12.549 A 3.59 3.59 0 0 0 340.59 11.79 Q 340.59 10.83 340.125 9.975 Q 339.66 9.12 338.85 8.58 A 3.487 3.487 0 0 0 337.364 8.03 A 4.336 4.336 0 0 0 336.96 7.995 Q 335.94 7.952 334.785 8.513 A 6.987 6.987 0 0 0 334.65 8.58 A 4.896 4.896 0 0 0 334.22 9.184 Q 333.988 9.572 333.87 9.96 Q 333.66 10.65 333.66 11.34 A 4.829 4.829 0 0 0 333.8 12.529 A 3.789 3.789 0 0 0 334.32 13.71 Q 334.98 14.7 336.21 15.015 Q 337.331 15.302 338.852 14.829 A 8.822 8.822 0 0 0 339.15 14.73 Z M 107.01 9.54 L 101.97 9.54 L 101.97 7.23 L 108.3 7.23 L 108.42 8.1 L 107.01 9.54 Z M 231.3 9.39 L 230.58 9.69 Q 230.61 8.7 230.955 7.905 A 4.599 4.599 0 0 1 231.731 6.675 A 4.334 4.334 0 0 1 231.87 6.525 Q 232.44 5.94 233.16 5.55 Q 233.88 5.16 234.69 5.01 L 235.26 8.13 A 6.932 6.932 0 0 0 233.007 8.486 A 6.128 6.128 0 0 0 231.3 9.39 Z M 341.31 9.39 L 340.59 9.69 Q 340.62 8.7 340.965 7.905 A 4.599 4.599 0 0 1 341.741 6.675 A 4.334 4.334 0 0 1 341.88 6.525 Q 342.45 5.94 343.17 5.55 Q 343.89 5.16 344.7 5.01 L 345.27 8.13 A 6.932 6.932 0 0 0 343.017 8.486 A 6.128 6.128 0 0 0 341.31 9.39 Z M 201.195 6.87 Q 202.17 7.11 203.01 7.53 Q 203.07 8.49 202.95 9.48 Q 202.83 10.47 202.5 11.4 L 200.88 11.4 L 200.55 7.71 L 203.01 7.53 M 61.857 3.838 A 4.396 4.396 0 0 0 62.34 4.08 Q 62.659 3.855 62.983 3.513 A 6.89 6.89 0 0 0 63.375 3.06 A 6.409 6.409 0 0 0 63.513 2.881 Q 63.929 2.318 64.11 1.8 A 4.039 4.039 0 0 0 63.877 1.513 Q 63.582 1.179 63.135 0.795 A 6.174 6.174 0 0 0 63.054 0.727 Q 62.773 0.493 62.494 0.319 A 3.67 3.67 0 0 0 61.86 0 Q 61.38 0.3 60.87 0.945 A 7.857 7.857 0 0 0 60.743 1.109 A 6.974 6.974 0 0 0 60.03 2.28 Q 60.39 2.79 61.08 3.315 Q 61.49 3.627 61.857 3.838 Z M 113.097 3.838 A 4.396 4.396 0 0 0 113.58 4.08 Q 113.899 3.855 114.223 3.513 A 6.89 6.89 0 0 0 114.615 3.06 A 6.409 6.409 0 0 0 114.753 2.881 Q 115.169 2.318 115.35 1.8 A 4.039 4.039 0 0 0 115.117 1.513 Q 114.822 1.179 114.375 0.795 A 6.174 6.174 0 0 0 114.294 0.727 Q 114.013 0.493 113.734 0.319 A 3.67 3.67 0 0 0 113.1 0 Q 112.62 0.3 112.11 0.945 A 7.857 7.857 0 0 0 111.983 1.109 A 6.974 6.974 0 0 0 111.27 2.28 Q 111.63 2.79 112.32 3.315 Q 112.73 3.627 113.097 3.838 Z M 4.23 1.77 L 4.14 3.66 L 0 3.18 L 0.03 1.77 L 4.23 1.77 Z M 17.25 1.77 L 17.16 3.66 L 13.02 3.18 L 13.05 1.77 L 17.25 1.77 Z M 265.29 21.27 L 261.09 21.27 L 261.18 19.38 L 265.32 19.86 L 265.29 21.27 Z M 282.99 21.27 L 278.79 21.27 L 278.88 19.38 L 283.02 19.86 L 282.99 21.27 Z M 262.89 1.77 L 262.8 3.66 L 258.66 3.18 L 258.69 1.77 L 262.89 1.77 Z M 62.34 6.75 L 62.73 7.5 L 61.41 8.88 L 58.62 9.09 L 58.26 7.68 Q 59.16 7.26 60.285 7.02 Q 61.41 6.78 62.34 6.75 Z M 70.83 6.75 L 71.22 7.5 L 69.9 8.88 L 67.11 9.09 L 66.75 7.68 Q 67.65 7.26 68.775 7.02 Q 69.9 6.78 70.83 6.75 Z M 113.58 6.75 L 113.97 7.5 L 112.65 8.88 L 109.86 9.09 L 109.5 7.68 Q 110.4 7.26 111.525 7.02 Q 112.65 6.78 113.58 6.75 Z M 136.8 6.75 L 137.19 7.5 L 135.87 8.88 L 133.08 9.09 L 132.72 7.68 Q 133.62 7.26 134.745 7.02 Q 135.87 6.78 136.8 6.75 Z M 301.86 6.75 L 302.25 7.5 L 300.93 8.88 L 298.14 9.09 L 297.78 7.68 Q 298.68 7.26 299.805 7.02 Q 300.93 6.78 301.86 6.75 Z M 363.18 6.75 L 363.57 7.5 L 362.25 8.88 L 359.46 9.09 L 359.1 7.68 Q 360 7.26 361.125 7.02 Q 362.25 6.78 363.18 6.75 Z M 102.12 9.45 L 99.57 9.51 L 99.36 8.07 A 8.74 8.74 0 0 1 100.454 7.643 A 7.221 7.221 0 0 1 101.115 7.47 A 18.849 18.849 0 0 1 102.255 7.265 A 16.049 16.049 0 0 1 102.75 7.2 L 103.44 7.95 L 102.12 9.45 Z M 367.29 21.27 L 363.9 21.27 L 363.93 19.26 A 7.118 7.118 0 0 1 364.34 19.273 Q 364.704 19.294 365.145 19.35 Q 365.85 19.44 366.495 19.56 A 7.975 7.975 0 0 1 366.85 19.634 Q 367.238 19.725 367.47 19.83 L 367.29 21.27 Z M 5.25 3.78 L 4.62 1.77 L 8.04 1.77 L 8.22 2.73 A 13.04 13.04 0 0 1 7.348 3.087 A 15.703 15.703 0 0 1 6.78 3.285 Q 6 3.54 5.25 3.78 Z M 17.43 3.78 L 16.8 1.77 L 20.22 1.77 L 20.4 2.73 A 13.04 13.04 0 0 1 19.528 3.087 A 15.703 15.703 0 0 1 18.96 3.285 Q 18.18 3.54 17.43 3.78 Z M 83.22 21.27 L 80.31 21.27 L 80.34 19.26 A 20.894 20.894 0 0 1 81.356 19.364 A 25.553 25.553 0 0 1 82.005 19.455 A 8.256 8.256 0 0 1 82.522 19.55 Q 82.781 19.606 82.998 19.675 A 3.265 3.265 0 0 1 83.4 19.83 L 83.22 21.27 Z M 149.19 21.27 L 146.28 21.27 L 146.31 19.26 A 20.894 20.894 0 0 1 147.326 19.364 A 25.553 25.553 0 0 1 147.975 19.455 A 8.256 8.256 0 0 1 148.492 19.55 Q 148.751 19.606 148.968 19.675 A 3.265 3.265 0 0 1 149.37 19.83 L 149.19 21.27 Z M 314.25 21.27 L 311.34 21.27 L 311.37 19.26 A 20.894 20.894 0 0 1 312.386 19.364 A 25.553 25.553 0 0 1 313.035 19.455 A 8.256 8.256 0 0 1 313.552 19.55 Q 313.811 19.606 314.028 19.675 A 3.265 3.265 0 0 1 314.43 19.83 L 314.25 21.27 Z M 65.52 21.27 L 62.73 21.27 L 62.76 19.26 A 18.704 18.704 0 0 1 64.159 19.422 A 20.674 20.674 0 0 1 64.365 19.455 A 7.512 7.512 0 0 1 64.895 19.56 Q 65.159 19.623 65.38 19.7 A 3.331 3.331 0 0 1 65.7 19.83 L 65.52 21.27 Z M 116.76 21.27 L 113.97 21.27 L 114 19.26 A 18.704 18.704 0 0 1 115.399 19.422 A 20.674 20.674 0 0 1 115.605 19.455 A 7.512 7.512 0 0 1 116.135 19.56 Q 116.399 19.623 116.62 19.7 A 3.331 3.331 0 0 1 116.94 19.83 L 116.76 21.27 Z M 73.8 21.27 L 71.01 21.27 L 71.04 19.26 A 18.704 18.704 0 0 1 72.439 19.422 A 20.674 20.674 0 0 1 72.645 19.455 A 7.512 7.512 0 0 1 73.175 19.56 Q 73.439 19.623 73.66 19.7 A 3.331 3.331 0 0 1 73.98 19.83 L 73.8 21.27 Z M 139.77 21.27 L 136.98 21.27 L 137.01 19.26 A 18.704 18.704 0 0 1 138.409 19.422 A 20.674 20.674 0 0 1 138.615 19.455 A 7.512 7.512 0 0 1 139.145 19.56 Q 139.409 19.623 139.63 19.7 A 3.331 3.331 0 0 1 139.95 19.83 L 139.77 21.27 Z M 304.83 21.27 L 302.04 21.27 L 302.07 19.26 A 18.704 18.704 0 0 1 303.469 19.422 A 20.674 20.674 0 0 1 303.675 19.455 A 7.512 7.512 0 0 1 304.205 19.56 Q 304.469 19.623 304.69 19.7 A 3.331 3.331 0 0 1 305.01 19.83 L 304.83 21.27 Z M 161.82 21.27 L 159 21.27 L 158.82 20.31 Q 159.51 19.98 160.275 19.725 Q 161.04 19.47 161.79 19.26 L 161.82 21.27 Z M 260.79 21.27 L 257.97 21.27 L 257.79 20.31 Q 258.48 19.98 259.245 19.725 Q 260.01 19.47 260.76 19.26 L 260.79 21.27 Z M 277.77 21.27 L 274.95 21.27 L 274.77 20.31 Q 275.46 19.98 276.225 19.725 Q 276.99 19.47 277.74 19.26 L 277.77 21.27 Z M 279.03 3.78 L 279 1.77 L 281.82 1.77 L 282 2.73 A 13.04 13.04 0 0 1 281.128 3.087 A 15.703 15.703 0 0 1 280.56 3.285 Q 279.78 3.54 279.03 3.78 Z M 69.75 21.27 L 67.38 21.27 L 67.23 20.28 A 6.708 6.708 0 0 1 67.604 20.108 Q 68.049 19.919 68.665 19.717 A 20.819 20.819 0 0 1 68.685 19.71 Q 69.6 19.41 70.17 19.26 L 69.75 21.27 Z M 135.72 21.27 L 133.35 21.27 L 133.2 20.28 A 6.708 6.708 0 0 1 133.574 20.108 Q 134.019 19.919 134.635 19.717 A 20.819 20.819 0 0 1 134.655 19.71 Q 135.57 19.41 136.14 19.26 L 135.72 21.27 Z M 300.78 21.27 L 298.41 21.27 L 298.26 20.28 A 6.708 6.708 0 0 1 298.634 20.108 Q 299.079 19.919 299.695 19.717 A 20.819 20.819 0 0 1 299.715 19.71 Q 300.63 19.41 301.2 19.26 L 300.78 21.27 Z M 362.04 21.27 L 359.67 21.27 L 359.52 20.28 A 6.708 6.708 0 0 1 359.894 20.108 Q 360.339 19.919 360.955 19.717 A 20.819 20.819 0 0 1 360.975 19.71 Q 361.89 19.41 362.46 19.26 L 362.04 21.27 Z M 79.44 21.27 L 77.07 21.27 L 76.92 20.28 A 6.708 6.708 0 0 1 77.294 20.108 Q 77.739 19.919 78.355 19.717 A 20.819 20.819 0 0 1 78.375 19.71 Q 79.29 19.41 79.86 19.26 L 79.44 21.27 Z M 145.41 21.27 L 143.04 21.27 L 142.89 20.28 A 6.708 6.708 0 0 1 143.264 20.108 Q 143.709 19.919 144.325 19.717 A 20.819 20.819 0 0 1 144.345 19.71 Q 145.26 19.41 145.83 19.26 L 145.41 21.27 Z M 310.47 21.27 L 308.1 21.27 L 307.95 20.28 A 6.708 6.708 0 0 1 308.324 20.108 Q 308.769 19.919 309.385 19.717 A 20.819 20.819 0 0 1 309.405 19.71 Q 310.32 19.41 310.89 19.26 L 310.47 21.27 Z M 61.11 21.27 L 58.74 21.27 L 58.59 20.28 A 6.708 6.708 0 0 1 58.964 20.108 Q 59.409 19.919 60.025 19.717 A 20.819 20.819 0 0 1 60.045 19.71 Q 60.96 19.41 61.53 19.26 L 61.11 21.27 Z M 112.35 21.27 L 109.98 21.27 L 109.83 20.28 A 6.708 6.708 0 0 1 110.204 20.108 Q 110.649 19.919 111.265 19.717 A 20.819 20.819 0 0 1 111.285 19.71 Q 112.2 19.41 112.77 19.26 L 112.35 21.27 Z" vector-effect="non-scaling-stroke"/></g></svg>